<mxfile host="app.diagrams.net" agent="Mozilla/5.0 (Windows NT 10.0; Win64; x64) AppleWebKit/537.36 (KHTML, like Gecko) Chrome/128.0.0.0 Safari/537.36" version="24.7.14">
  <diagram name="Seite-1" id="L8YXax1k3aGHhyEfZnYb">
    <mxGraphModel grid="1" page="1" gridSize="10" guides="1" tooltips="1" connect="1" arrows="1" fold="1" pageScale="1" pageWidth="827" pageHeight="1169" background="none" math="0" shadow="0">
      <root>
        <mxCell id="0" />
        <mxCell id="1" parent="0" />
        <mxCell id="XUc9JNSLyWPqz56X5J2v-11" value="" style="edgeStyle=orthogonalEdgeStyle;rounded=0;orthogonalLoop=1;jettySize=auto;html=1;strokeColor=#000000;" edge="1" parent="1" source="XUc9JNSLyWPqz56X5J2v-1" target="XUc9JNSLyWPqz56X5J2v-4">
          <mxGeometry relative="1" as="geometry" />
        </mxCell>
        <mxCell id="XUc9JNSLyWPqz56X5J2v-1" value="Rezeptur" style="rounded=0;whiteSpace=wrap;html=1;fillColor=#dae8fc;strokeColor=#6c8ebf;" vertex="1" parent="1">
          <mxGeometry x="160" y="220" width="150" height="40" as="geometry" />
        </mxCell>
        <mxCell id="XUc9JNSLyWPqz56X5J2v-13" style="edgeStyle=orthogonalEdgeStyle;rounded=0;orthogonalLoop=1;jettySize=auto;html=1;strokeColor=#000000;" edge="1" parent="1" source="XUc9JNSLyWPqz56X5J2v-2" target="XUc9JNSLyWPqz56X5J2v-3">
          <mxGeometry relative="1" as="geometry" />
        </mxCell>
        <mxCell id="XUc9JNSLyWPqz56X5J2v-2" value="Arbeitsplan" style="rounded=0;whiteSpace=wrap;html=1;fillColor=#f8cecc;strokeColor=#b85450;" vertex="1" parent="1">
          <mxGeometry x="339" y="220" width="150" height="40" as="geometry" />
        </mxCell>
        <mxCell id="XUc9JNSLyWPqz56X5J2v-14" style="edgeStyle=orthogonalEdgeStyle;rounded=0;orthogonalLoop=1;jettySize=auto;html=1;strokeColor=#000000;" edge="1" parent="1" source="XUc9JNSLyWPqz56X5J2v-3" target="XUc9JNSLyWPqz56X5J2v-6">
          <mxGeometry relative="1" as="geometry" />
        </mxCell>
        <mxCell id="XUc9JNSLyWPqz56X5J2v-3" value="Sequenz" style="rounded=0;whiteSpace=wrap;html=1;fillColor=#f8cecc;strokeColor=#b85450;" vertex="1" parent="1">
          <mxGeometry x="339" y="290" width="150" height="40" as="geometry" />
        </mxCell>
        <mxCell id="XUc9JNSLyWPqz56X5J2v-12" value="" style="edgeStyle=orthogonalEdgeStyle;rounded=0;orthogonalLoop=1;jettySize=auto;html=1;strokeColor=#000000;" edge="1" parent="1" source="XUc9JNSLyWPqz56X5J2v-4" target="XUc9JNSLyWPqz56X5J2v-5">
          <mxGeometry relative="1" as="geometry" />
        </mxCell>
        <mxCell id="XUc9JNSLyWPqz56X5J2v-4" value="Operation" style="rounded=0;whiteSpace=wrap;html=1;fillColor=#dae8fc;strokeColor=#6c8ebf;" vertex="1" parent="1">
          <mxGeometry x="160" y="290" width="150" height="40" as="geometry" />
        </mxCell>
        <mxCell id="XUc9JNSLyWPqz56X5J2v-5" value="Funktion" style="rounded=0;whiteSpace=wrap;html=1;fillColor=#dae8fc;strokeColor=#6c8ebf;" vertex="1" parent="1">
          <mxGeometry x="160" y="360" width="150" height="40" as="geometry" />
        </mxCell>
        <mxCell id="XUc9JNSLyWPqz56X5J2v-6" value="Skill" style="rounded=0;whiteSpace=wrap;html=1;fillColor=#f8cecc;strokeColor=#b85450;" vertex="1" parent="1">
          <mxGeometry x="339" y="360" width="150" height="40" as="geometry" />
        </mxCell>
        <mxCell id="XUc9JNSLyWPqz56X5J2v-16" value="&lt;font&gt;ANSI/ISO-88&lt;/font&gt;" style="text;strokeColor=none;align=center;fillColor=none;html=1;verticalAlign=middle;whiteSpace=wrap;rounded=0;fontColor=#030303;" vertex="1" parent="1">
          <mxGeometry x="160" y="190" width="150" height="30" as="geometry" />
        </mxCell>
        <mxCell id="XUc9JNSLyWPqz56X5J2v-18" value="&lt;font&gt;Skillbasierter Ansatz&lt;/font&gt;" style="text;strokeColor=none;align=center;fillColor=none;html=1;verticalAlign=middle;whiteSpace=wrap;rounded=0;fontColor=#030303;" vertex="1" parent="1">
          <mxGeometry x="339" y="190" width="150" height="30" as="geometry" />
        </mxCell>
      </root>
    </mxGraphModel>
  </diagram>
</mxfile>
